<svg width="271" height="121" viewBox="0 0 271 121" fill="none" xmlns="http://www.w3.org/2000/svg">
<path d="M52.9083 46.5495C53.488 46.5495 53.8445 46.1483 53.9332 45.6135C55.2706 38.2143 55.2259 38.0806 62.8924 36.6543C63.4721 36.5206 63.8732 36.2085 63.8732 35.5846C63.8732 35.0051 63.4721 34.6485 62.937 34.5148C55.2259 32.9993 55.4044 32.8656 53.9332 25.6002C53.8445 25.0207 53.488 24.6196 52.9083 24.6196C52.3286 24.6196 51.9721 25.0207 51.8828 25.5556C50.4121 32.9101 50.6353 33.0884 42.9237 34.5148C42.3445 34.6485 41.9433 35.0051 41.9433 35.5846C41.9433 36.2085 42.3445 36.5206 42.8795 36.6543C50.6353 38.2143 50.546 38.2589 51.8828 45.6135C51.9721 46.1483 52.3286 46.5495 52.9083 46.5495ZM74.3478 77.3049C75.2393 77.3049 75.9077 76.6811 76.0416 75.7003C77.4682 63.8884 78.0027 63.5319 90.0377 61.6598C91.1073 61.4815 91.7316 60.902 91.7316 59.9214C91.7316 59.03 91.1073 58.406 90.2158 58.2277C78.0474 55.8653 77.4682 55.999 76.0416 44.1872C75.9077 43.2066 75.2393 42.5825 74.3478 42.5825C73.4121 42.5825 72.7431 43.2066 72.6098 44.1426C71.0939 56.1773 70.6928 56.5339 58.4351 58.2277C57.5441 58.3614 56.9198 59.03 56.9198 59.9214C56.9198 60.8575 57.5441 61.4815 58.4351 61.6598C70.7374 64.0669 71.0493 63.9777 72.6098 75.7895C72.7431 76.6811 73.4121 77.3049 74.3478 77.3049ZM39.8483 120.585C56.4294 120.585 70.1582 111.938 76.3094 97.5414C77.1117 95.5798 77.0224 93.9752 76.0416 92.9949C75.2393 92.1926 73.724 92.0587 72.1194 92.7717C68.4198 94.2876 63.9625 95.0899 59.0148 95.0899C39.046 95.0899 25.9415 82.4311 25.9415 62.9081C25.9415 57.7374 26.9669 51.9874 28.6161 48.5999C29.5072 46.7278 29.4626 45.1677 28.6603 44.1872C27.7692 43.162 26.12 43.0282 24.0695 43.8305C9.71691 49.5359 0 64.3788 0 81.183C0 103.737 16.5812 120.585 39.8483 120.585Z" fill="white"/>
<path d="M89.0348 39.08L88.6988 31.688L106.315 13.4H113.323L98.6828 28.952L95.2269 32.744L89.0348 39.08ZM83.4668 47V13.4H89.7068V47H83.4668ZM106.891 47L94.0268 31.688L98.1548 27.128L114.187 47H106.891ZM118.436 47V13.4H124.676V47H118.436ZM149.316 47.48C146.756 47.48 144.372 47.064 142.164 46.232C139.988 45.368 138.084 44.168 136.452 42.632C134.852 41.064 133.604 39.224 132.708 37.112C131.812 35 131.364 32.696 131.364 30.2C131.364 27.704 131.812 25.4 132.708 23.288C133.604 21.176 134.868 19.352 136.5 17.816C138.132 16.248 140.036 15.048 142.212 14.216C144.388 13.352 146.772 12.92 149.364 12.92C152.116 12.92 154.628 13.4 156.9 14.36C159.172 15.288 161.092 16.68 162.66 18.536L158.628 22.328C157.412 21.016 156.052 20.04 154.548 19.4C153.044 18.728 151.412 18.392 149.652 18.392C147.892 18.392 146.276 18.68 144.804 19.256C143.364 19.832 142.1 20.648 141.012 21.704C139.956 22.76 139.124 24.008 138.516 25.448C137.94 26.888 137.652 28.472 137.652 30.2C137.652 31.928 137.94 33.512 138.516 34.952C139.124 36.392 139.956 37.64 141.012 38.696C142.1 39.752 143.364 40.568 144.804 41.144C146.276 41.72 147.892 42.008 149.652 42.008C151.412 42.008 153.044 41.688 154.548 41.048C156.052 40.376 157.412 39.368 158.628 38.024L162.66 41.864C161.092 43.688 159.172 45.08 156.9 46.04C154.628 47 152.1 47.48 149.316 47.48ZM175.08 47V18.68H163.944V13.4H192.456V18.68H181.32V47H175.08ZM83.4668 106V72.4H88.6028L103.291 96.928H100.603L115.051 72.4H120.187L120.235 106H114.331L114.283 81.664H115.531L103.243 102.16H100.459L87.9788 81.664H89.4188V106H83.4668ZM139.583 106.336C137.407 106.336 135.487 105.936 133.823 105.136C132.159 104.304 130.863 103.056 129.935 101.392C129.007 99.696 128.543 97.568 128.543 95.008V80.368H134.543V94.192C134.543 96.496 135.055 98.224 136.079 99.376C137.135 100.496 138.623 101.056 140.543 101.056C141.951 101.056 143.167 100.768 144.191 100.192C145.247 99.616 146.063 98.752 146.639 97.6C147.247 96.448 147.551 95.024 147.551 93.328V80.368H153.551V106H147.839V99.088L148.847 101.2C147.983 102.864 146.719 104.144 145.055 105.04C143.391 105.904 141.567 106.336 139.583 106.336ZM169.326 106.336C167.182 106.336 165.118 106.064 163.134 105.52C161.182 104.944 159.63 104.256 158.478 103.456L160.782 98.896C161.934 99.632 163.31 100.24 164.91 100.72C166.51 101.2 168.11 101.44 169.71 101.44C171.598 101.44 172.958 101.184 173.79 100.672C174.654 100.16 175.086 99.472 175.086 98.608C175.086 97.904 174.798 97.376 174.222 97.024C173.646 96.64 172.894 96.352 171.966 96.16C171.038 95.968 169.998 95.792 168.846 95.632C167.726 95.472 166.59 95.264 165.438 95.008C164.318 94.72 163.294 94.32 162.366 93.808C161.438 93.264 160.686 92.544 160.11 91.648C159.534 90.752 159.246 89.568 159.246 88.096C159.246 86.464 159.71 85.056 160.638 83.872C161.566 82.656 162.862 81.728 164.526 81.088C166.222 80.416 168.222 80.08 170.526 80.08C172.254 80.08 173.998 80.272 175.758 80.656C177.518 81.04 178.974 81.584 180.126 82.288L177.822 86.848C176.606 86.112 175.374 85.616 174.126 85.36C172.91 85.072 171.694 84.928 170.478 84.928C168.654 84.928 167.294 85.2 166.398 85.744C165.534 86.288 165.102 86.976 165.102 87.808C165.102 88.576 165.39 89.152 165.966 89.536C166.542 89.92 167.294 90.224 168.222 90.448C169.15 90.672 170.174 90.864 171.294 91.024C172.446 91.152 173.582 91.36 174.702 91.648C175.822 91.936 176.846 92.336 177.774 92.848C178.734 93.328 179.502 94.016 180.078 94.912C180.654 95.808 180.942 96.976 180.942 98.416C180.942 100.016 180.462 101.408 179.502 102.592C178.574 103.776 177.246 104.704 175.518 105.376C173.79 106.016 171.726 106.336 169.326 106.336ZM197.63 106.336C195.006 106.336 192.67 105.776 190.622 104.656C188.574 103.504 186.958 101.936 185.774 99.952C184.59 97.968 183.998 95.712 183.998 93.184C183.998 90.624 184.59 88.368 185.774 86.416C186.958 84.432 188.574 82.88 190.622 81.76C192.67 80.64 195.006 80.08 197.63 80.08C200.286 80.08 202.638 80.64 204.686 81.76C206.766 82.88 208.382 84.416 209.534 86.368C210.718 88.32 211.31 90.592 211.31 93.184C211.31 95.712 210.718 97.968 209.534 99.952C208.382 101.936 206.766 103.504 204.686 104.656C202.638 105.776 200.286 106.336 197.63 106.336ZM197.63 101.2C199.102 101.2 200.414 100.88 201.566 100.24C202.718 99.6 203.614 98.672 204.254 97.456C204.926 96.24 205.262 94.816 205.262 93.184C205.262 91.52 204.926 90.096 204.254 88.912C203.614 87.696 202.718 86.768 201.566 86.128C200.414 85.488 199.118 85.168 197.678 85.168C196.206 85.168 194.894 85.488 193.742 86.128C192.622 86.768 191.726 87.696 191.054 88.912C190.382 90.096 190.046 91.52 190.046 93.184C190.046 94.816 190.382 96.24 191.054 97.456C191.726 98.672 192.622 99.6 193.742 100.24C194.894 100.88 196.19 101.2 197.63 101.2ZM217.047 106V70.384H223.047V106H217.047ZM230.922 106V70.384H236.922V106H230.922ZM260.589 106V100.816L260.253 99.712V90.64C260.253 88.88 259.725 87.52 258.669 86.56C257.613 85.568 256.013 85.072 253.869 85.072C252.429 85.072 251.005 85.296 249.597 85.744C248.221 86.192 247.053 86.816 246.093 87.616L243.741 83.248C245.117 82.192 246.749 81.408 248.637 80.896C250.557 80.352 252.541 80.08 254.589 80.08C258.301 80.08 261.165 80.976 263.181 82.768C265.229 84.528 266.253 87.264 266.253 90.976V106H260.589ZM252.525 106.336C250.605 106.336 248.925 106.016 247.485 105.376C246.045 104.704 244.925 103.792 244.125 102.64C243.357 101.456 242.973 100.128 242.973 98.656C242.973 97.216 243.309 95.92 243.981 94.768C244.685 93.616 245.821 92.704 247.389 92.032C248.957 91.36 251.037 91.024 253.629 91.024H261.069V95.008H254.061C252.013 95.008 250.637 95.344 249.933 96.016C249.229 96.656 248.877 97.456 248.877 98.416C248.877 99.504 249.309 100.368 250.173 101.008C251.037 101.648 252.237 101.968 253.773 101.968C255.245 101.968 256.557 101.632 257.709 100.96C258.893 100.288 259.741 99.296 260.253 97.984L261.261 101.584C260.685 103.088 259.645 104.256 258.141 105.088C256.669 105.92 254.797 106.336 252.525 106.336Z" fill="white"/>
</svg>
