<svg width="172" height="375" viewBox="0 0 172 375" fill="none" xmlns="http://www.w3.org/2000/svg">
<path d="M86 76.0218C106.873 76.0218 123.668 58.7575 123.668 38.5113C123.668 17.6373 106.873 0.686966 86 0.686966C64.9696 0.686966 48.4892 17.6373 48.4892 38.5113C48.4892 59.0714 64.9696 76.0218 86 76.0218ZM0.777466 235.952C0.777466 247.095 7.21228 253.373 16.7857 253.373C26.0464 253.373 32.6375 247.095 32.6375 235.952V159.204C32.6375 155.28 34.8357 152.613 38.1303 152.613C41.4267 152.613 43.625 155.28 43.625 159.204V355.859C43.625 368.102 51.1571 374.85 61.516 374.85C71.7178 374.85 79.2517 368.102 79.2517 355.859V240.189C79.2517 235.166 81.9196 232.184 86 232.184C89.9232 232.184 92.591 235.166 92.591 240.189V355.859C92.591 368.102 100.282 374.85 110.484 374.85C120.686 374.85 128.22 368.102 128.22 355.859V159.204C128.22 155.28 130.416 152.613 133.712 152.613C137.007 152.613 139.205 155.28 139.205 159.204V235.952C139.205 247.095 145.796 253.373 155.214 253.373C164.63 253.373 171.066 247.095 171.066 235.952V157.948C171.066 115.102 140.932 91.7164 86 91.7164C30.9107 91.7164 0.777466 115.102 0.777466 157.948V235.952Z" fill="#D9D6D6"/>
</svg>
