<svg width="1698" height="849" viewBox="0 0 1698 849" fill="none" xmlns="http://www.w3.org/2000/svg">
<path d="M1698 849C1698 623.831 1608.55 407.885 1449.33 248.666C1290.12 89.448 1074.17 1.69998e-05 849 0C623.831 -1.69998e-05 407.885 89.4479 248.666 248.666C89.448 407.885 3.39995e-05 623.831 0 849L849 849H1273.5H1698Z" fill="#FF453A"/>
<path d="M1698 849C1698 623.831 1608.55 407.885 1449.33 248.666C1290.12 89.448 1074.17 1.69998e-05 849 0C623.831 -1.69998e-05 407.885 89.4479 248.666 248.666C89.448 407.885 3.39995e-05 623.831 0 849L849 849H1273.5H1698Z" fill="url(#paint0_linear_121_2)" fill-opacity="0.4"/>
<defs>
<linearGradient id="paint0_linear_121_2" x1="846.736" y1="851.264" x2="846.736" y2="4.15302e-05" gradientUnits="userSpaceOnUse">
<stop/>
<stop offset="1" stop-opacity="0"/>
</linearGradient>
</defs>
</svg>
