<svg width="1698" height="977" viewBox="0 0 1698 977" fill="none" xmlns="http://www.w3.org/2000/svg">
<path d="M1698 977C1698 751.831 1608.55 535.885 1449.33 376.666C1290.12 217.448 1074.17 128 849 128C623.831 128 407.885 217.448 248.666 376.666C89.448 535.885 3.39995e-05 751.831 0 977L849 977H1273.5H1698Z" fill="#ca6a3e"/>
<path d="M1698 977C1698 751.831 1608.55 535.885 1449.33 376.666C1290.12 217.448 1074.17 128 849 128C623.831 128 407.885 217.448 248.666 376.666C89.448 535.885 3.39995e-05 751.831 0 977L849 977H1273.5H1698Z" fill="url(#paint0_linear_606_8)" fill-opacity="0.4"/>
<rect x="676" width="378" height="59" rx="10" fill="#ca6a3e"/>
<path d="M703.82 40V19H712.46C714.32 19 715.91 19.3 717.23 19.9C718.57 20.5 719.6 21.36 720.32 22.48C721.04 23.6 721.4 24.93 721.4 26.47C721.4 28.01 721.04 29.34 720.32 30.46C719.6 31.58 718.57 32.44 717.23 33.04C715.91 33.64 714.32 33.94 712.46 33.94H705.98L707.72 32.11V40H703.82ZM707.72 32.53L705.98 30.64H712.28C714 30.64 715.29 30.28 716.15 29.56C717.03 28.82 717.47 27.79 717.47 26.47C717.47 25.13 717.03 24.1 716.15 23.38C715.29 22.66 714 22.3 712.28 22.3H705.98L707.72 20.38V32.53ZM724.788 40V23.98H728.358V28.39L727.938 27.1C728.418 26.02 729.168 25.2 730.188 24.64C731.228 24.08 732.518 23.8 734.058 23.8V27.37C733.898 27.33 733.748 27.31 733.608 27.31C733.468 27.29 733.328 27.28 733.188 27.28C731.768 27.28 730.638 27.7 729.798 28.54C728.958 29.36 728.538 30.59 728.538 32.23V40H724.788ZM745.967 40V36.76L745.757 36.07V30.4C745.757 29.3 745.427 28.45 744.767 27.85C744.107 27.23 743.107 26.92 741.767 26.92C740.867 26.92 739.977 27.06 739.097 27.34C738.237 27.62 737.507 28.01 736.907 28.51L735.437 25.78C736.297 25.12 737.317 24.63 738.497 24.31C739.697 23.97 740.937 23.8 742.217 23.8C744.537 23.8 746.327 24.36 747.587 25.48C748.867 26.58 749.507 28.29 749.507 30.61V40H745.967ZM740.927 40.21C739.727 40.21 738.677 40.01 737.777 39.61C736.877 39.19 736.177 38.62 735.677 37.9C735.197 37.16 734.957 36.33 734.957 35.41C734.957 34.51 735.167 33.7 735.587 32.98C736.027 32.26 736.737 31.69 737.717 31.27C738.697 30.85 739.997 30.64 741.617 30.64H746.267V33.13H741.887C740.607 33.13 739.747 33.34 739.307 33.76C738.867 34.16 738.647 34.66 738.647 35.26C738.647 35.94 738.917 36.48 739.457 36.88C739.997 37.28 740.747 37.48 741.707 37.48C742.627 37.48 743.447 37.27 744.167 36.85C744.907 36.43 745.437 35.81 745.757 34.99L746.387 37.24C746.027 38.18 745.377 38.91 744.437 39.43C743.517 39.95 742.347 40.21 740.927 40.21ZM755.346 46.03C754.566 46.03 753.786 45.9 753.006 45.64C752.226 45.38 751.576 45.02 751.056 44.56L752.556 41.8C752.936 42.14 753.366 42.41 753.846 42.61C754.326 42.81 754.816 42.91 755.316 42.91C755.996 42.91 756.546 42.74 756.966 42.4C757.386 42.06 757.776 41.49 758.136 40.69L759.066 38.59L759.366 38.14L765.426 23.98H769.026L761.526 41.29C761.026 42.49 760.466 43.44 759.846 44.14C759.246 44.84 758.566 45.33 757.806 45.61C757.066 45.89 756.246 46.03 755.346 46.03ZM758.646 40.57L751.416 23.98H755.316L761.196 37.81L758.646 40.57ZM778.461 40.21C776.681 40.21 775.121 39.86 773.781 39.16C772.461 38.44 771.431 37.46 770.691 36.22C769.971 34.98 769.611 33.57 769.611 31.99C769.611 30.39 769.961 28.98 770.661 27.76C771.381 26.52 772.361 25.55 773.601 24.85C774.861 24.15 776.291 23.8 777.891 23.8C779.451 23.8 780.841 24.14 782.061 24.82C783.281 25.5 784.241 26.46 784.941 27.7C785.641 28.94 785.991 30.4 785.991 32.08C785.991 32.24 785.981 32.42 785.961 32.62C785.961 32.82 785.951 33.01 785.931 33.19H772.581V30.7H783.951L782.481 31.48C782.501 30.56 782.311 29.75 781.911 29.05C781.511 28.35 780.961 27.8 780.261 27.4C779.581 27 778.791 26.8 777.891 26.8C776.971 26.8 776.161 27 775.461 27.4C774.781 27.8 774.241 28.36 773.841 29.08C773.461 29.78 773.271 30.61 773.271 31.57V32.17C773.271 33.13 773.491 33.98 773.931 34.72C774.371 35.46 774.991 36.03 775.791 36.43C776.591 36.83 777.511 37.03 778.551 37.03C779.451 37.03 780.261 36.89 780.981 36.61C781.701 36.33 782.341 35.89 782.901 35.29L784.911 37.6C784.191 38.44 783.281 39.09 782.181 39.55C781.101 39.99 779.861 40.21 778.461 40.21ZM789.593 40V23.98H793.163V28.39L792.743 27.1C793.223 26.02 793.973 25.2 794.993 24.64C796.033 24.08 797.323 23.8 798.863 23.8V27.37C798.703 27.33 798.553 27.31 798.413 27.31C798.273 27.29 798.133 27.28 797.993 27.28C796.573 27.28 795.443 27.7 794.603 28.54C793.763 29.36 793.343 30.59 793.343 32.23V40H789.593ZM815.431 40.21C814.091 40.21 812.801 40.04 811.561 39.7C810.341 39.34 809.371 38.91 808.651 38.41L810.091 35.56C810.811 36.02 811.671 36.4 812.671 36.7C813.671 37 814.671 37.15 815.671 37.15C816.851 37.15 817.701 36.99 818.221 36.67C818.761 36.35 819.031 35.92 819.031 35.38C819.031 34.94 818.851 34.61 818.491 34.39C818.131 34.15 817.661 33.97 817.081 33.85C816.501 33.73 815.851 33.62 815.131 33.52C814.431 33.42 813.721 33.29 813.001 33.13C812.301 32.95 811.661 32.7 811.081 32.38C810.501 32.04 810.031 31.59 809.671 31.03C809.311 30.47 809.131 29.73 809.131 28.81C809.131 27.79 809.421 26.91 810.001 26.17C810.581 25.41 811.391 24.83 812.431 24.43C813.491 24.01 814.741 23.8 816.181 23.8C817.261 23.8 818.351 23.92 819.451 24.16C820.551 24.4 821.461 24.74 822.181 25.18L820.741 28.03C819.981 27.57 819.211 27.26 818.431 27.1C817.671 26.92 816.911 26.83 816.151 26.83C815.011 26.83 814.161 27 813.601 27.34C813.061 27.68 812.791 28.11 812.791 28.63C812.791 29.11 812.971 29.47 813.331 29.71C813.691 29.95 814.161 30.14 814.741 30.28C815.321 30.42 815.961 30.54 816.661 30.64C817.381 30.72 818.091 30.85 818.791 31.03C819.491 31.21 820.131 31.46 820.711 31.78C821.311 32.08 821.791 32.51 822.151 33.07C822.511 33.63 822.691 34.36 822.691 35.26C822.691 36.26 822.391 37.13 821.791 37.87C821.211 38.61 820.381 39.19 819.301 39.61C818.221 40.01 816.931 40.21 815.431 40.21ZM825.921 40V17.74H829.671V40H825.921ZM841.793 40.21C840.153 40.21 838.693 39.86 837.413 39.16C836.133 38.44 835.123 37.46 834.383 36.22C833.643 34.98 833.273 33.57 833.273 31.99C833.273 30.39 833.643 28.98 834.383 27.76C835.123 26.52 836.133 25.55 837.413 24.85C838.693 24.15 840.153 23.8 841.793 23.8C843.453 23.8 844.923 24.15 846.203 24.85C847.503 25.55 848.513 26.51 849.233 27.73C849.973 28.95 850.343 30.37 850.343 31.99C850.343 33.57 849.973 34.98 849.233 36.22C848.513 37.46 847.503 38.44 846.203 39.16C844.923 39.86 843.453 40.21 841.793 40.21ZM841.793 37C842.713 37 843.533 36.8 844.253 36.4C844.973 36 845.533 35.42 845.933 34.66C846.353 33.9 846.563 33.01 846.563 31.99C846.563 30.95 846.353 30.06 845.933 29.32C845.533 28.56 844.973 27.98 844.253 27.58C843.533 27.18 842.723 26.98 841.823 26.98C840.903 26.98 840.083 27.18 839.363 27.58C838.663 27.98 838.103 28.56 837.683 29.32C837.263 30.06 837.053 30.95 837.053 31.99C837.053 33.01 837.263 33.9 837.683 34.66C838.103 35.42 838.663 36 839.363 36.4C840.083 36.8 840.893 37 841.793 37ZM859.959 40.21C858.199 40.21 856.839 39.76 855.879 38.86C854.919 37.94 854.439 36.59 854.439 34.81V20.44H858.189V34.72C858.189 35.48 858.379 36.07 858.759 36.49C859.159 36.91 859.709 37.12 860.409 37.12C861.249 37.12 861.949 36.9 862.509 36.46L863.559 39.13C863.119 39.49 862.579 39.76 861.939 39.94C861.299 40.12 860.639 40.21 859.959 40.21ZM851.799 27.1V24.1H862.479V27.1H851.799ZM871.594 40.21C870.254 40.21 868.964 40.04 867.724 39.7C866.504 39.34 865.534 38.91 864.814 38.41L866.254 35.56C866.974 36.02 867.834 36.4 868.834 36.7C869.834 37 870.834 37.15 871.834 37.15C873.014 37.15 873.864 36.99 874.384 36.67C874.924 36.35 875.194 35.92 875.194 35.38C875.194 34.94 875.014 34.61 874.654 34.39C874.294 34.15 873.824 33.97 873.244 33.85C872.664 33.73 872.014 33.62 871.294 33.52C870.594 33.42 869.884 33.29 869.164 33.13C868.464 32.95 867.824 32.7 867.244 32.38C866.664 32.04 866.194 31.59 865.834 31.03C865.474 30.47 865.294 29.73 865.294 28.81C865.294 27.79 865.584 26.91 866.164 26.17C866.744 25.41 867.554 24.83 868.594 24.43C869.654 24.01 870.904 23.8 872.344 23.8C873.424 23.8 874.514 23.92 875.614 24.16C876.714 24.4 877.624 24.74 878.344 25.18L876.904 28.03C876.144 27.57 875.374 27.26 874.594 27.1C873.834 26.92 873.074 26.83 872.314 26.83C871.174 26.83 870.324 27 869.764 27.34C869.224 27.68 868.954 28.11 868.954 28.63C868.954 29.11 869.134 29.47 869.494 29.71C869.854 29.95 870.324 30.14 870.904 30.28C871.484 30.42 872.124 30.54 872.824 30.64C873.544 30.72 874.254 30.85 874.954 31.03C875.654 31.21 876.294 31.46 876.874 31.78C877.474 32.08 877.954 32.51 878.314 33.07C878.674 33.63 878.854 34.36 878.854 35.26C878.854 36.26 878.554 37.13 877.954 37.87C877.374 38.61 876.544 39.19 875.464 39.61C874.384 40.01 873.094 40.21 871.594 40.21ZM900.244 40V36.76L900.034 36.07V30.4C900.034 29.3 899.704 28.45 899.044 27.85C898.384 27.23 897.384 26.92 896.044 26.92C895.144 26.92 894.254 27.06 893.374 27.34C892.514 27.62 891.784 28.01 891.184 28.51L889.714 25.78C890.574 25.12 891.594 24.63 892.774 24.31C893.974 23.97 895.214 23.8 896.494 23.8C898.814 23.8 900.604 24.36 901.864 25.48C903.144 26.58 903.784 28.29 903.784 30.61V40H900.244ZM895.204 40.21C894.004 40.21 892.954 40.01 892.054 39.61C891.154 39.19 890.454 38.62 889.954 37.9C889.474 37.16 889.234 36.33 889.234 35.41C889.234 34.51 889.444 33.7 889.864 32.98C890.304 32.26 891.014 31.69 891.994 31.27C892.974 30.85 894.274 30.64 895.894 30.64H900.544V33.13H896.164C894.884 33.13 894.024 33.34 893.584 33.76C893.144 34.16 892.924 34.66 892.924 35.26C892.924 35.94 893.194 36.48 893.734 36.88C894.274 37.28 895.024 37.48 895.984 37.48C896.904 37.48 897.724 37.27 898.444 36.85C899.184 36.43 899.714 35.81 900.034 34.99L900.664 37.24C900.304 38.18 899.654 38.91 898.714 39.43C897.794 39.95 896.624 40.21 895.204 40.21ZM912.564 40L905.694 23.98H909.594L915.504 38.11H913.584L919.704 23.98H923.304L916.434 40H912.564ZM935.019 40V36.76L934.809 36.07V30.4C934.809 29.3 934.479 28.45 933.819 27.85C933.159 27.23 932.159 26.92 930.819 26.92C929.919 26.92 929.029 27.06 928.149 27.34C927.289 27.62 926.559 28.01 925.959 28.51L924.489 25.78C925.349 25.12 926.369 24.63 927.549 24.31C928.749 23.97 929.989 23.8 931.269 23.8C933.589 23.8 935.379 24.36 936.639 25.48C937.919 26.58 938.559 28.29 938.559 30.61V40H935.019ZM929.979 40.21C928.779 40.21 927.729 40.01 926.829 39.61C925.929 39.19 925.229 38.62 924.729 37.9C924.249 37.16 924.009 36.33 924.009 35.41C924.009 34.51 924.219 33.7 924.639 32.98C925.079 32.26 925.789 31.69 926.769 31.27C927.749 30.85 929.049 30.64 930.669 30.64H935.319V33.13H930.939C929.659 33.13 928.799 33.34 928.359 33.76C927.919 34.16 927.699 34.66 927.699 35.26C927.699 35.94 927.969 36.48 928.509 36.88C929.049 37.28 929.799 37.48 930.759 37.48C931.679 37.48 932.499 37.27 933.219 36.85C933.959 36.43 934.489 35.81 934.809 34.99L935.439 37.24C935.079 38.18 934.429 38.91 933.489 39.43C932.569 39.95 931.399 40.21 929.979 40.21ZM943.372 40V23.98H947.122V40H943.372ZM945.262 21.34C944.562 21.34 943.982 21.12 943.522 20.68C943.082 20.24 942.862 19.71 942.862 19.09C942.862 18.45 943.082 17.92 943.522 17.5C943.982 17.06 944.562 16.84 945.262 16.84C945.962 16.84 946.532 17.05 946.972 17.47C947.432 17.87 947.662 18.38 947.662 19C947.662 19.66 947.442 20.22 947.002 20.68C946.562 21.12 945.982 21.34 945.262 21.34ZM952.044 40V17.74H955.794V40H952.044ZM970.586 40V36.76L970.376 36.07V30.4C970.376 29.3 970.046 28.45 969.386 27.85C968.726 27.23 967.726 26.92 966.386 26.92C965.486 26.92 964.596 27.06 963.716 27.34C962.856 27.62 962.126 28.01 961.526 28.51L960.056 25.78C960.916 25.12 961.936 24.63 963.116 24.31C964.316 23.97 965.556 23.8 966.836 23.8C969.156 23.8 970.946 24.36 972.206 25.48C973.486 26.58 974.126 28.29 974.126 30.61V40H970.586ZM965.546 40.21C964.346 40.21 963.296 40.01 962.396 39.61C961.496 39.19 960.796 38.62 960.296 37.9C959.816 37.16 959.576 36.33 959.576 35.41C959.576 34.51 959.786 33.7 960.206 32.98C960.646 32.26 961.356 31.69 962.336 31.27C963.316 30.85 964.616 30.64 966.236 30.64H970.886V33.13H966.506C965.226 33.13 964.366 33.34 963.926 33.76C963.486 34.16 963.266 34.66 963.266 35.26C963.266 35.94 963.536 36.48 964.076 36.88C964.616 37.28 965.366 37.48 966.326 37.48C967.246 37.48 968.066 37.27 968.786 36.85C969.526 36.43 970.056 35.81 970.376 34.99L971.006 37.24C970.646 38.18 969.996 38.91 969.056 39.43C968.136 39.95 966.966 40.21 965.546 40.21ZM987.819 40.21C986.459 40.21 985.249 39.91 984.189 39.31C983.129 38.71 982.289 37.81 981.669 36.61C981.069 35.39 980.769 33.85 980.769 31.99C980.769 30.11 981.079 28.57 981.699 27.37C982.339 26.17 983.189 25.28 984.249 24.7C985.329 24.1 986.519 23.8 987.819 23.8C989.399 23.8 990.789 24.14 991.989 24.82C993.209 25.5 994.169 26.45 994.869 27.67C995.589 28.89 995.949 30.33 995.949 31.99C995.949 33.65 995.589 35.09 994.869 36.31C994.169 37.53 993.209 38.49 991.989 39.19C990.789 39.87 989.399 40.21 987.819 40.21ZM978.939 40V17.74H982.689V27.7L982.389 31.96L982.509 36.22V40H978.939ZM987.399 37C988.299 37 989.099 36.8 989.799 36.4C990.519 36 991.089 35.42 991.509 34.66C991.929 33.9 992.139 33.01 992.139 31.99C992.139 30.95 991.929 30.06 991.509 29.32C991.089 28.56 990.519 27.98 989.799 27.58C989.099 27.18 988.299 26.98 987.399 26.98C986.499 26.98 985.689 27.18 984.969 27.58C984.249 27.98 983.679 28.56 983.259 29.32C982.839 30.06 982.629 30.95 982.629 31.99C982.629 33.01 982.839 33.9 983.259 34.66C983.679 35.42 984.249 36 984.969 36.4C985.689 36.8 986.499 37 987.399 37ZM999.505 40V17.74H1003.25V40H999.505ZM1015.71 40.21C1013.93 40.21 1012.37 39.86 1011.03 39.16C1009.71 38.44 1008.68 37.46 1007.94 36.22C1007.22 34.98 1006.86 33.57 1006.86 31.99C1006.86 30.39 1007.21 28.98 1007.91 27.76C1008.63 26.52 1009.61 25.55 1010.85 24.85C1012.11 24.15 1013.54 23.8 1015.14 23.8C1016.7 23.8 1018.09 24.14 1019.31 24.82C1020.53 25.5 1021.49 26.46 1022.19 27.7C1022.89 28.94 1023.24 30.4 1023.24 32.08C1023.24 32.24 1023.23 32.42 1023.21 32.62C1023.21 32.82 1023.2 33.01 1023.18 33.19H1009.83V30.7H1021.2L1019.73 31.48C1019.75 30.56 1019.56 29.75 1019.16 29.05C1018.76 28.35 1018.21 27.8 1017.51 27.4C1016.83 27 1016.04 26.8 1015.14 26.8C1014.22 26.8 1013.41 27 1012.71 27.4C1012.03 27.8 1011.49 28.36 1011.09 29.08C1010.71 29.78 1010.52 30.61 1010.52 31.57V32.17C1010.52 33.13 1010.74 33.98 1011.18 34.72C1011.62 35.46 1012.24 36.03 1013.04 36.43C1013.84 36.83 1014.76 37.03 1015.8 37.03C1016.7 37.03 1017.51 36.89 1018.23 36.61C1018.95 36.33 1019.59 35.89 1020.15 35.29L1022.16 37.6C1021.44 38.44 1020.53 39.09 1019.43 39.55C1018.35 39.99 1017.11 40.21 1015.71 40.21Z" fill="black"/>
<defs>
<linearGradient id="paint0_linear_606_8" x1="846.736" y1="979.264" x2="846.736" y2="128" gradientUnits="userSpaceOnUse">
<stop/>
<stop offset="1" stop-opacity="0"/>
</linearGradient>
</defs>
</svg>
