<svg width="50" height="40" viewBox="0 0 50 40" fill="none" xmlns="http://www.w3.org/2000/svg">
<path d="M25 15.7087C25.4144 15.7087 25.7346 15.558 26.1676 15.1625L31.9497 9.73843C32.3262 9.38059 32.5334 9.00392 32.5334 8.53307C32.5334 7.72322 31.9308 7.1017 31.0645 7.1017C30.6123 7.1017 30.1981 7.32771 29.8968 7.66671L27.7308 9.90793L26.3937 11.5653L26.6761 8.57074V1.92244C26.6761 0.94309 25.9041 0.13324 25 0.13324C24.0771 0.13324 23.305 0.94309 23.305 1.92244V8.57074L23.5874 11.5653L22.4009 10.0586L20.0845 7.66671C19.783 7.32771 19.3688 7.1017 18.9166 7.1017C18.0503 7.1017 17.4477 7.72322 17.4477 8.53307C17.4477 9.00392 17.6549 9.38059 18.0314 9.73843L23.8135 15.1625C24.2465 15.558 24.5669 15.7087 25 15.7087ZM34.7183 20.7749C35.3774 21.4341 36.4696 21.4152 37.2042 20.6809L40.2741 17.611C41.0275 16.8764 41.0086 15.8029 40.3495 15.1437C39.7278 14.4845 38.6356 14.4845 37.9011 15.219L34.8123 18.3079C34.0778 19.0422 34.0589 20.1346 34.7183 20.7749ZM15.2629 20.7749C15.9221 20.1158 15.9033 19.0422 15.1876 18.3079L12.0989 15.219C11.3644 14.4845 10.2909 14.5033 9.63167 15.1437C8.9725 15.784 8.9725 16.8764 9.70701 17.611L12.7957 20.6809C13.5303 21.4152 14.6226 21.4341 15.2629 20.7749ZM2.73854 39.8534H47.2426C48.2785 39.8534 49.126 39.0248 49.126 38.0455C49.126 37.0474 48.2785 36.2374 47.2426 36.2374H33.4941C34.6617 34.5989 35.3208 32.6213 35.3208 30.5121C35.3208 24.8243 30.6501 20.1535 25 20.1535C19.3499 20.1535 14.6791 24.8243 14.6791 30.5121C14.6791 32.6213 15.3383 34.5989 16.5059 36.2374H2.73854C1.70269 36.2374 0.855164 37.0662 0.855164 38.0455C0.855164 39.0059 1.72152 39.8534 2.73854 39.8534ZM18.1257 30.5121C18.1257 26.7076 21.2333 23.6378 25 23.6378C28.7667 23.6378 31.8554 26.7076 31.8554 30.5121C31.8554 32.8851 30.6312 34.9945 28.861 36.2374H21.139C19.3499 35.0134 18.1257 32.8851 18.1257 30.5121ZM5.07391 31.4348H9.42451C10.4604 31.4348 11.2702 30.6816 11.2514 29.7586C11.2326 28.8357 10.4604 28.0825 9.42451 28.0825H5.07391C4.03806 28.0825 3.26588 28.8357 3.26588 29.7586C3.26588 30.6816 4.05689 31.4348 5.07391 31.4348ZM40.5756 31.4348H44.926C45.9618 31.4348 46.7341 30.6816 46.7341 29.7586C46.7341 28.8357 45.9618 28.0825 44.926 28.0825H40.5756C39.5397 28.0825 38.7297 28.8357 38.7486 29.7586C38.7674 30.6816 39.5397 31.4348 40.5756 31.4348Z" fill="white"/>
</svg>
