<svg width="40" height="39" viewBox="0 0 40 39" fill="none" xmlns="http://www.w3.org/2000/svg">
<path d="M30.4151 25.2483C20.4519 25.2483 14.2556 19.2781 14.2556 9.61634C14.2556 6.90428 14.7078 4.45589 15.4046 3.1187C15.7248 2.49719 15.8188 2.12052 15.8188 1.64967C15.8188 0.858655 15.1597 0.0299683 14.1804 0.0299683C13.9355 0.0299683 13.5024 0.105312 12.8996 0.331319C5.83703 3.21288 0.921448 10.5769 0.921448 18.5435C0.921448 29.9945 9.26477 38.3566 20.7157 38.3566C28.8894 38.3566 35.6319 33.9871 38.7206 26.9058C38.9844 26.3218 39.0596 25.8322 39.0596 25.5309C39.0596 24.5703 38.3253 23.9677 37.553 23.9677C37.1574 23.9677 36.7996 24.0241 36.2536 24.269C34.8033 24.8716 32.5809 25.2483 30.4151 25.2483ZM4.61286 18.4306C4.61286 13.1195 7.2684 7.97781 11.6002 5.05857C11.0916 6.56528 10.828 8.24148 10.828 10.0683C10.828 21.6511 17.9471 28.6196 29.7935 28.6196C31.3756 28.6196 32.7504 28.4313 34.0499 27.9791C31.3001 32.1603 26.2717 34.6839 20.8286 34.6839C11.4496 34.6839 4.61286 27.8285 4.61286 18.4306Z" fill="white"/>
</svg>
