<svg width="44" height="46" viewBox="0 0 44 46" fill="none" xmlns="http://www.w3.org/2000/svg">
<path d="M22 8.58412C22.9229 8.56528 23.6761 7.79311 23.6761 6.75725V2.40667C23.6761 1.37081 22.9229 0.598633 22 0.598633C21.077 0.598633 20.3238 1.37081 20.3238 2.40667V6.75725C20.3238 7.79311 21.077 8.60296 22 8.58412ZM31.7183 12.6145C32.3774 13.2549 33.4696 13.236 34.2042 12.5204L37.274 9.43164C38.0275 8.69711 38.0086 7.62361 37.3495 6.96442C36.7278 6.30523 35.6356 6.30523 34.901 7.05858L31.8123 10.1285C31.0778 10.863 31.0589 11.9742 31.7183 12.6145ZM12.2629 12.6145C12.9221 11.9553 12.9033 10.863 12.1876 10.1285L9.09888 7.05858C8.36437 6.30523 7.29084 6.32407 6.63166 6.96442C5.97249 7.62361 5.97249 8.69711 6.707 9.43164L9.79573 12.5204C10.5302 13.236 11.6226 13.2737 12.2629 12.6145ZM4.39046 30.7326H42.4345C43.169 30.7326 43.7341 30.1864 43.7341 29.4518C43.7341 28.7363 43.169 28.1901 42.4345 28.1901H30.3998C31.624 26.5326 32.3208 24.4986 32.3208 22.3328C32.3208 16.645 27.65 11.993 22 11.993C16.3499 11.993 11.6791 16.645 11.6791 22.3328C11.6791 24.4986 12.3759 26.5326 13.6002 28.1901H4.39046C3.67477 28.1901 3.10976 28.7363 3.10976 29.4518C3.10976 30.1864 3.67477 30.7326 4.39046 30.7326ZM15.0503 22.3328C15.0503 18.5095 18.1955 15.3831 22 15.3831C25.8044 15.3831 28.9308 18.5095 28.9308 22.3328C28.9308 24.7999 27.6123 26.9847 25.6538 28.1901H18.3462C16.3876 26.9847 15.0503 24.7999 15.0503 22.3328ZM2.0739 23.4439H6.4245C7.46034 23.4439 8.27019 22.6906 8.25135 21.7677C8.23254 20.8448 7.46034 20.0916 6.4245 20.0916H2.0739C1.03805 20.0916 0.265869 20.8448 0.265869 21.7677C0.265869 22.6906 1.05688 23.4439 2.0739 23.4439ZM37.5755 23.4439H41.926C42.9618 23.4627 43.7341 22.6906 43.7341 21.7677C43.7341 20.8448 42.9618 20.0916 41.926 20.0916H37.5755C36.5397 20.0916 35.7297 20.8448 35.7485 21.7677C35.7674 22.6906 36.5397 23.4439 37.5755 23.4439ZM1.56541 37.9647H39.5907C40.3253 37.9647 40.8901 37.4185 40.8901 36.6839C40.8901 35.9684 40.3253 35.4222 39.5907 35.4222H1.56541C0.830876 35.4222 0.265869 35.9684 0.265869 36.6839C0.265869 37.4185 0.830876 37.9647 1.56541 37.9647ZM4.39046 45.1969H42.4345C43.169 45.1969 43.7341 44.6506 43.7341 43.9161C43.7341 43.2006 43.169 42.6544 42.4345 42.6544H4.39046C3.67477 42.6544 3.10976 43.2006 3.10976 43.9161C3.10976 44.6506 3.67477 45.1969 4.39046 45.1969Z" fill="white"/>
</svg>
