<svg width="50" height="40" viewBox="0 0 50 40" fill="none" xmlns="http://www.w3.org/2000/svg">
<path d="M25 15.7087C25.9041 15.7087 26.6762 14.8989 26.6762 13.9007V7.25237L26.3937 4.27665L27.7309 5.93402L29.8969 8.1564C30.1982 8.4954 30.6124 8.7214 31.0645 8.7214C31.9309 8.7214 32.5334 8.11873 32.5334 7.29004C32.5334 6.81919 32.3262 6.46135 31.9497 6.10352L26.1677 0.679411C25.7346 0.283904 25.4144 0.13324 25 0.13324C24.5669 0.13324 24.2466 0.283904 23.8135 0.679411L18.0314 6.10352C17.6549 6.46135 17.4477 6.81919 17.4477 7.29004C17.4477 8.11873 18.0503 8.7214 18.9167 8.7214C19.3688 8.7214 19.783 8.4954 20.0845 8.1564L22.4009 5.78335L23.5874 4.27665L23.305 7.25237V13.9007C23.305 14.8989 24.0771 15.7087 25 15.7087ZM34.7183 20.7186C35.3774 21.3589 36.4697 21.3589 37.2042 20.6243L40.2741 17.5544C41.0275 16.8199 41.0087 15.7464 40.3495 15.0872C39.7279 14.428 38.6357 14.428 37.9011 15.1625L34.8124 18.2513C34.0778 18.967 34.0589 20.0781 34.7183 20.7186ZM12.7958 20.6243C13.5303 21.3589 14.6226 21.3777 15.263 20.7186C15.9222 20.0592 15.9033 18.967 15.1877 18.2513L12.0989 15.1625C11.3644 14.428 10.2909 14.4469 9.6317 15.0872C8.97253 15.7275 8.97253 16.8199 9.70704 17.5544L12.7958 20.6243ZM35.2079 30.4178C35.2079 24.8054 30.5937 20.1724 25 20.1724C19.4063 20.1724 14.7733 24.8054 14.7733 30.4178C14.7733 31.6231 15.0182 32.7722 15.4701 33.8267H34.5299C34.963 32.7722 35.2079 31.6231 35.2079 30.4178ZM5.07394 31.3784H9.42455C10.4604 31.3784 11.2702 30.625 11.2514 29.7021C11.2326 28.7794 10.4604 28.0259 9.42455 28.0259H5.07394C4.03809 28.0259 3.26591 28.7794 3.26591 29.7021C3.26591 30.625 4.05692 31.3784 5.07394 31.3784ZM40.5756 31.3784H44.926C45.9619 31.3784 46.7342 30.625 46.7342 29.7021C46.7342 28.7794 45.9619 28.0259 44.926 28.0259H40.5756C39.5397 28.0259 38.7297 28.7794 38.7486 29.7021C38.7674 30.625 39.5397 31.3784 40.5756 31.3784ZM2.73857 39.8534H47.2427C48.2785 39.8534 49.126 39.0248 49.126 38.0455C49.126 37.0474 48.2785 36.2374 47.2427 36.2374H2.73857C1.70272 36.2374 0.855194 37.0662 0.855194 38.0455C0.855194 39.0059 1.72155 39.8534 2.73857 39.8534Z" fill="white"/>
</svg>
