<svg width="44" height="43" viewBox="0 0 44 43" fill="none" xmlns="http://www.w3.org/2000/svg">
<path d="M23.921 2.04884C23.921 1.01298 23.0358 0.127808 22 0.127808C20.9641 0.127808 20.0978 1.01298 20.0978 2.04884V5.87208C20.0978 6.90794 20.9641 7.77429 22 7.77429C23.0358 7.77429 23.921 6.90794 23.921 5.87208V2.04884ZM31.4545 9.05497C30.7199 9.7895 30.7199 11.0137 31.4733 11.7482C32.189 12.4827 33.4321 12.4827 34.1665 11.7294L36.8787 9.01732C37.613 8.30163 37.613 7.03976 36.8787 6.30526C36.1441 5.58959 34.9199 5.58959 34.1853 6.32409L31.4545 9.05497ZM9.83341 11.7294C10.5491 12.4827 11.7921 12.4827 12.5266 11.7482C13.2611 11.0325 13.2611 9.77066 12.5455 9.05497L9.83341 6.32409C9.11772 5.60842 7.87469 5.58959 7.14018 6.30526C6.40567 7.03976 6.40567 8.30163 7.12135 8.99849L9.83341 11.7294ZM22 11.2585C16.576 11.2585 12.0746 15.7409 12.0746 21.1838C12.0746 26.6269 16.576 31.1093 22 31.1093C27.424 31.1093 31.9064 26.6269 31.9064 21.1838C31.9064 15.7409 27.424 11.2585 22 11.2585ZM22 14.818C25.4654 14.818 28.3658 17.6997 28.3658 21.1838C28.3658 24.6681 25.4654 27.5496 22 27.5496C18.5157 27.5496 15.6153 24.6681 15.6153 21.1838C15.6153 17.6997 18.5157 14.818 22 14.818ZM41.1162 23.1049C42.152 23.1049 43.0184 22.2197 43.0184 21.1838C43.0184 20.1479 42.152 19.2816 41.1162 19.2816H37.2929C36.257 19.2816 35.3907 20.1479 35.3907 21.1838C35.3907 22.2197 36.257 23.1049 37.2929 23.1049H41.1162ZM2.9026 19.2816C1.8479 19.2816 0.981567 20.1479 0.981567 21.1838C0.981567 22.2197 1.8479 23.1049 2.9026 23.1049H6.707C7.74286 23.1049 8.62805 22.2197 8.62805 21.1838C8.62805 20.1479 7.74286 19.2816 6.707 19.2816H2.9026ZM34.1476 30.6383C33.4133 29.9039 32.189 29.9228 31.4545 30.6572C30.7199 31.3729 30.7199 32.5971 31.4733 33.3505L34.2042 36.0625C34.9199 36.7971 36.163 36.7782 36.8973 36.0437C37.613 35.3091 37.613 34.0849 36.8787 33.3505L34.1476 30.6383ZM7.12135 33.3317C6.38684 34.0662 6.368 35.3091 7.08367 36.0248C7.8182 36.7594 9.08005 36.7782 9.79574 36.0625L12.5266 33.3505C13.2611 32.6159 13.2611 31.3729 12.5455 30.6572C11.8109 29.9228 10.5679 29.9228 9.83341 30.6383L7.12135 33.3317ZM23.921 36.4956C23.921 35.4597 23.0358 34.5936 22 34.5936C20.9641 34.5936 20.0978 35.4597 20.0978 36.4956V40.3189C20.0978 41.3547 20.9641 42.2399 22 42.2399C23.0358 42.2399 23.921 41.3547 23.921 40.3189V36.4956Z" fill="white"/>
</svg>
